<?xml version="1.0" standalone="no"?>
<!DOCTYPE svg PUBLIC "-//W3C//DTD SVG 20010904//EN"
 "http://www.w3.org/TR/2001/REC-SVG-20010904/DTD/svg10.dtd">
<svg version="1.0" xmlns="http://www.w3.org/2000/svg"
 width="562.000000pt" height="562.000000pt" viewBox="0 0 562.000000 562.000000"
 preserveAspectRatio="xMidYMid meet">
<metadata>
Created by potrace 1.11, written by Peter Selinger 2001-2013
</metadata>
<g transform="translate(0.000000,562.000000) scale(0.100000,-0.100000)"
fill="#000000" stroke="none">
<path d="M2677 5614 c-1 -1 -42 -4 -92 -8 -49 -3 -101 -8 -115 -10 -14 -3 -45
-7 -70 -10 -81 -11 -163 -27 -265 -53 -55 -14 -107 -26 -115 -28 -50 -11 -273
-95 -374 -140 -237 -108 -431 -231 -643 -407 l-83 -69 0 -860 0 -859 158 0
158 0 -1 -87 -1 -88 -272 -3 -272 -2 -1 22 c0 13 0 384 -1 826 0 441 -3 802
-7 802 -8 -1 -108 -129 -175 -224 -279 -397 -449 -865 -495 -1363 -9 -97 -7
-467 2 -523 4 -19 9 -57 12 -85 26 -227 108 -525 207 -749 310 -710 893 -1259
1618 -1523 103 -37 284 -90 340 -99 19 -3 37 -7 40 -9 3 -2 25 -6 50 -10 25
-4 47 -8 50 -10 3 -2 37 -6 75 -10 39 -4 73 -9 76 -11 13 -7 197 -17 329 -17
168 0 314 11 435 33 28 5 68 12 90 15 22 3 48 8 57 11 16 5 36 9 84 19 216 46
579 198 802 337 89 55 221 147 248 172 7 6 37 31 68 55 36 28 56 52 56 65 1
32 1 1494 0 1549 l0 48 -107 -3 -108 -3 -2 -65 c0 -36 -1 -90 -2 -121 l-1 -57
-115 1 -115 1 0 343 0 343 115 0 115 0 1 -32 c0 -18 1 -74 0 -124 l0 -91 109
0 110 0 1 56 c1 31 0 86 0 124 l-2 67 120 0 120 0 0 -901 c0 -496 2 -903 4
-905 2 -3 24 19 48 48 24 29 52 61 61 72 78 87 247 355 325 516 103 212 200
498 228 670 3 19 8 42 10 50 9 29 29 191 40 320 5 57 5 326 0 395 -8 121 -50
393 -69 445 -3 8 -7 26 -10 40 -17 94 -90 302 -164 469 -135 301 -326 576
-572 822 -444 445 -984 711 -1630 803 -96 14 -471 29 -483 20z m-1060 -2277
l1 -348 -116 3 -117 3 -1 347 -1 346 116 -1 116 -2 2 -348z m403 333 c28 -32
89 -105 166 -198 42 -51 79 -91 81 -88 3 3 5 72 6 154 l0 149 114 1 113 1 0
-350 0 -349 -94 0 -94 0 -37 42 c-20 23 -80 95 -133 159 l-97 118 -3 -160 -2
-159 -114 0 -114 0 0 350 1 349 96 -1 c78 -1 99 -4 111 -18z m1277 -55 l1 -70
-61 -70 c-34 -39 -82 -95 -107 -124 -25 -29 -60 -69 -78 -89 -19 -21 -43 -49
-54 -64 l-19 -28 169 0 169 0 -3 -22 c-1 -13 -3 -53 -3 -90 l-1 -68 -319 0
-318 0 1 73 1 73 145 170 c80 93 151 177 158 186 12 16 3 17 -132 16 -79 0
-149 3 -154 6 -5 3 -9 44 -9 90 l0 85 306 -2 306 -2 2 -70z m733 -14 l0 -89
-165 1 c-104 1 -165 -2 -166 -8 -7 -61 -5 -75 10 -76 9 0 76 0 149 0 l132 1 0
-85 0 -84 -147 -3 -148 -3 -1 -42 c0 -24 4 -44 10 -44 6 -1 85 -2 176 -3 l164
-1 1 -87 1 -88 -291 0 -290 0 1 348 c1 191 2 348 3 348 0 1 127 2 281 3 l280
1 0 -89z m692 52 c106 -50 156 -136 145 -254 -7 -80 -39 -134 -105 -179 l-22
-15 53 -80 c30 -44 62 -92 71 -107 l18 -28 -123 0 -124 0 -50 77 c-62 95 -70
103 -106 103 l-29 0 0 -90 0 -90 -117 0 -118 0 2 317 c1 175 2 333 2 352 l1
33 218 -4 217 -4 67 -31z m-899 -912 c55 -19 157 -90 157 -109 0 -4 -32 -36
-70 -70 l-70 -64 -35 31 c-60 52 -160 63 -215 22 -63 -46 -88 -149 -55 -228
27 -64 73 -93 149 -94 50 -1 83 11 125 46 36 31 24 36 111 -43 19 -18 38 -32
41 -32 16 0 18 -35 3 -51 -55 -61 -174 -109 -272 -111 -230 -4 -397 139 -406
347 -12 272 256 449 537 356z m-2905 -223 c0 -128 1 -245 1 -259 l1 -27 138 0
c75 -1 146 -1 157 -1 20 -1 22 -13 16 -157 -1 -21 -4 -21 -271 -22 -270 -1
-270 -1 -274 21 -3 12 -4 169 -4 350 l1 327 117 0 117 0 1 -232z m748 22 c0
-113 4 -219 8 -236 14 -63 81 -95 143 -69 60 25 65 49 66 313 l0 202 114 0
113 0 1 -32 c3 -137 -1 -399 -6 -428 -35 -196 -209 -286 -458 -237 -40 8 -121
62 -149 100 -57 75 -62 103 -64 360 l-2 238 116 -3 117 -3 1 -205z m1020 55
c71 -85 131 -155 134 -155 3 0 5 69 5 153 l0 152 113 3 c86 2 112 0 112 -10 1
-19 1 -596 1 -644 l-1 -42 -95 0 -94 0 -128 154 c-70 85 -131 154 -135 154 -4
0 -7 -51 -7 -112 1 -62 1 -132 0 -154 l-1 -42 -112 2 -113 1 -1 340 c0 187 1
343 3 348 3 4 46 7 98 7 l94 0 127 -155z"/>
<path d="M4450 3427 l0 -85 70 2 c55 1 74 6 90 21 26 27 31 66 13 103 -16 33
-33 39 -120 42 l-53 1 0 -84z"/>
</g>
</svg>
