<svg xmlns="http://www.w3.org/2000/svg" viewBox="0 0 280 280"><defs><style>.cls-1{fill:#fccda0;stroke:#fccda0;stroke-linecap:round;stroke-linejoin:round;}</style></defs><title>breakfast</title><g id="Breakfast"><path class="cls-1" d="M163.35,183.07l-18.8,16.82s4,3,8.9,6.93,11.87,4.95,18.8,0c4.69-3.35-1.5-13.33-4-16.82C167,188.13,163.35,183.07,163.35,183.07Z"/><path class="cls-1" d="M124.84,138.55c-8.9-1-20.78,0-20.78,0s-13.85-1-5.94,30.67S114,203.85,114,203.85s12.86-16.82,15.83-34.63S133.74,139.54,124.84,138.55Z"/><path class="cls-1" d="M140,0A140,140,0,1,0,280,140,140,140,0,0,0,140,0Zm35.79,66.82c1-1,5.44-4.45,7.42-.49s-3,5.94-3,5.94c-4.45,5.44-.49,6.43,2,10.88,4.73,8.52,0,12.86-2,15.83s-8.9,1-4.95-4.95-3.48-9.59-4-15.83C170.85,71.76,173.82,68.8,175.79,66.82Zm-22.76,0c1-1,5.44-4.45,7.42-.49s-3,5.94-3,5.94c-4.45,5.44-.49,6.43,2,10.88,4.73,8.52,0,12.86-2,15.83s-8.9,1-4.95-4.95-3.48-9.59-4-15.83C148.09,71.76,151.06,68.8,153,66.82Zm16.33,147.92c-14.84,4-29.68-9.89-29.68-9.89s-2,2-8.9,4.95a8.82,8.82,0,0,1-10.88-3s-1,4.95-5.94,4.95-6.93-5.94-6.93-5.94c-2,2-6.63,2.17-8.9,2a16.16,16.16,0,0,1-9.89-4.95c-16.82,17.81-31.66,12.86-37.6,8.9s-4-13.85-1-19.79,10.88-14.84,10.88-14.84-5.94-4.95-4-10.88,5.94-10.88,11.87-14.84,20.78-4.95,20.78-4.95c2-15.83,14.84-14.84,14.84-14.84s6.93-2,21.77,0,12.86,17.81,12.86,17.81,18.8-1,27.7,9.89,2,17.81,2,17.81l-1,2A50.55,50.55,0,0,1,177.28,191C182.23,198.9,184.2,210.77,169.36,214.73Zm41.06-57.88c0,25.72-17.81,23.75-17.81,23.75H174.8v-7.92h16.82c13.85,0,10.88-17.81,10.88-17.81l.49-41.06H132.76l.49,10.39h-6.93V105.4h84.1v15.83s21.77-2,22.76,16.82S210.42,156.85,210.42,156.85Z"/><path class="cls-1" d="M92.19,173.18c-1.46-5.84-4-19.79-4-19.79s-9.89,0-14.84,3-9.89,5.94-9.89,10.88,3,7.92,6.93,10.88,20.78,18.8,20.78,18.8,5.94,5.94,8.9,4.95,1-4.95,1-4.95S94.17,181.09,92.19,173.18Z"/><path class="cls-1" d="M163.35,169.22c0-4.95-4.95-7.92-9.89-10.88s-14.84-3-14.84-3-2.5,13.95-4,19.79c-2,7.92-8.9,23.75-8.9,23.75s-2,4,1,4.95,8.9-4.95,8.9-4.95,16.82-15.83,20.78-18.8S163.35,174.17,163.35,169.22Z"/><path class="cls-1" d="M209.93,127.67v22.76s16.82,0,16.82-11.87S209.93,127.67,209.93,127.67Z"/><path class="cls-1" d="M59.54,189c-2.46,3.49-8.65,13.47-4,16.82,6.93,4.95,13.85,4,18.8,0s8.9-6.93,8.9-6.93l-18.8-16.82S60.85,187.14,59.54,189Z"/></g></svg>