<svg xmlns="http://www.w3.org/2000/svg" viewBox="0 0 280 280"><defs><style>.cls-1{fill:#fccda0;stroke:#fccda0;stroke-linecap:round;stroke-linejoin:round;}</style></defs><title>delivery</title><g id="delivery"><path class="cls-1" d="M101.47,80.15a29.77,29.77,0,1,0,29.77,29.77A29.77,29.77,0,0,0,101.47,80.15ZM114,123.25h0a2.29,2.29,0,0,1-3.22,0L102.53,115a5.32,5.32,0,0,1-3.9-9.89V88.41a2.28,2.28,0,1,1,4.56,0v16.74a5.3,5.3,0,0,1,2.62,6.66L114,120A2.29,2.29,0,0,1,114,123.25Z"/><path class="cls-1" d="M192.66,133.43s-1.25-2.51-5-2.51H175.74v23.82h30.71s1.88,0,0-2.51S192.66,133.43,192.66,133.43Z"/><path class="cls-1" d="M140,.5A139.5,139.5,0,1,0,279.5,140,139.5,139.5,0,0,0,140,.5ZM112.75,207.38a14.1,14.1,0,1,1,14.1-14.1A14.1,14.1,0,0,1,112.75,207.38Zm32.91-16.92H133.74s-1.25-18.18-20.68-18.18-20.68,18.18-20.68,18.18H79.22s-5,0-5-6.27V137.81s-11.91-11.28-11.28-28.2,13.16-37,37.61-37.61,35.1,20.68,35.1,20.68,3.76,7.52,3.76,14.42h6.89s5.64,0,5.64,6.89v67.69S152.55,190.46,145.65,190.46ZM184.83,208a14.1,14.1,0,1,1,14.1-14.1A14.1,14.1,0,0,1,184.83,208Zm32.28-23.82a7.69,7.69,0,0,1-4.39,6.89h-6.89c-.63-4.39-4.39-18.18-20.68-18.18s-21.94,18.18-21.94,18.18c-3.76.63-5.64-5.64-5.64-5.64V127.16c0-9.4,8.15-8.77,8.15-8.77h20.06c8.15,0,10,1.88,12.54,5,3.43,4.28,8.15,10.66,13.16,17.55a30.65,30.65,0,0,1,5.64,13.79Z"/></g></svg>