<svg xmlns="http://www.w3.org/2000/svg" viewBox="0 0 280 280"><defs><style>.cls-1{fill:#fccda0;stroke:#fccda0;stroke-linecap:round;stroke-linejoin:round;}</style></defs><title>garden</title><g id="Layer_22" data-name="Layer 22"><path class="cls-1" d="M209,122.2c3.34-1.67,9-5.72,6.76-13.25-2.36-7.91-13.64-7.7-19-7.13-1.49.16-2.61-.59-2.52-1.67,1-11.8-13.48-10.8-20.51-9.63-1.58.26-3-.76-2.62-1.9,1.39-4.3,2.33-12.35-10.09-12.53S147,83.54,147,87.68c0,1.12-1.56,1.87-3,1.47-3.34-.92-8.74-1.71-13.74.63a9.07,9.07,0,0,0-5.62,9.53c.09,1-1.06,1.8-2.43,1.69a14.91,14.91,0,0,0-13.43,5.46c-4.34,5.55-1.29,10.13,1,12.4.77.77.4,1.86-.77,2.29a24.52,24.52,0,0,0-7.47,4.47c-.69.75-6.58,9.46,3.12,15.44,7,4.31,14.35,2.92,17.91,1.81a2.61,2.61,0,0,1,2.94.85c1.19,2,4,5.14,10.32,5.81a18.16,18.16,0,0,0,11.23-2,2.68,2.68,0,0,1,3.41.61c1.84,3,6.29,7.79,15.84,7.62,10.1-.18,13.57-5.92,14.71-9a2.44,2.44,0,0,1,3-1c5.12,1.63,17.16,4.26,25.93-3.39s2.2-14.89-1.3-17.81C207.76,123.8,208,122.74,209,122.2Z"/><polygon class="cls-1" points="86.2 192.63 77.73 204.01 111.18 204.01 112.36 204.01 103.89 192.63 86.2 192.63"/><path class="cls-1" d="M165.57,173.09c-10.68-1-15.66-7.65-17.67-11.59a2.6,2.6,0,0,0-3.64-.69c-.31.22-.65.44-1,.66l14.35,20.73Z"/><path class="cls-1" d="M140,0A140,140,0,1,0,280,140,140,140,0,0,0,140,0ZM124.11,223.56l-7.26-11.47H73.25L66,223.56l-8.29-.06,7.23-11.41h-6V204H69.41l8.47-11.37H68.31v-8.08h51.92v8.08h-9L119.6,204h10.46v8.08h-6l7.18,11.41ZM223.77,127c4.41,4,14.08,14.9,2.17,26.53s-28.31,7.07-34.57,4.72a2.34,2.34,0,0,0-3.07,1.2,18.45,18.45,0,0,1-12.65,12.79l-13.74,17.44-.39,32.25h-8.65V189.67l-18.69-25.43a26.71,26.71,0,0,1-5.13-.14c-8.7-1-12.35-6.14-13.74-9a2.47,2.47,0,0,0-3-1c-4.4,1.64-14.44,4.13-24-2.45-12.68-8.76-5-21.53-4.07-22.62a31.7,31.7,0,0,1,10.33-6.79c1.27-.5,1.7-1.77.85-2.68-3-3.14-7.61-10.11-1.67-18.63A18.56,18.56,0,0,1,112,93c1.4.18,2.65-.76,2.51-1.9-.44-3.74-.11-10.75,7.28-14.63,7-3.69,14.64-2.08,18.87-.63,1.46.5,3.06-.4,3-1.67-.17-5.84,1.5-18,18.39-17.76s14.88,13.09,13,19.15c-.42,1.32,1.07,2.52,2.71,2.19,8.86-1.78,29.6-4,27.69,14.61-.12,1.15,1.14,2.07,2.55,1.88,6.6-.9,22.42-1.72,25.63,10.34,3.07,11.54-5.16,17.49-9.41,19.73A1.56,1.56,0,0,0,223.77,127Z"/></g></svg>