<svg xmlns="http://www.w3.org/2000/svg" viewBox="0 0 280 280"><defs><style>.cls-1{fill:#fccda0;stroke:#fccda0;stroke-linecap:round;stroke-linejoin:round;}</style></defs><title>glutenfree</title><g id="glutenfree2"><path class="cls-1" d="M141.7,225.3c-2.11-24,9.17-36.07,21.21-42.09l-5.69-5.69a39.29,39.29,0,0,1-13.54.87,45.44,45.44,0,0,1,0-14.38L131,151.26c4.58,5.84,7.34,14.27,6,26.44,0,0-39.19,7.21-39.36-39.47,0,0,16.86-1,28.6,8.31L31.74,52A139.5,139.5,0,0,0,228,248.26l-44.78-44.78C170.74,229.48,141.7,225.3,141.7,225.3Zm-3.4,0s-45.72,6.59-47-48.13C91.28,177.17,142.59,176.31,138.3,225.3Z"/><path class="cls-1" d="M175.39,97.18c3,22-4.38,33.18-13,38.84l4,4a53,53,0,0,1,15.31-2.4,60.57,60.57,0,0,1-1.47,16.23l70.76,70.76A139.5,139.5,0,0,0,55.43,29.06l87.74,87.74C151.45,99.2,175.39,97.18,175.39,97.18ZM140.1,54.45c32.85,33.18,0,55.74,0,55.74C107.26,83.65,140.1,54.45,140.1,54.45Z"/><path class="cls-1" d="M126.24,146.53l4.72,4.72A28.14,28.14,0,0,0,126.24,146.53Z"/></g></svg>