<svg xmlns="http://www.w3.org/2000/svg" viewBox="0 0 280 280"><defs><style>.cls-1{fill:#fccda0;stroke:#fccda0;stroke-linecap:round;stroke-linejoin:round;}</style></defs><title>lunch</title><g id="lunch"><path class="cls-1" d="M172.94,142.59a2.4,2.4,0,0,0-2.4,2.4v27.95a2.4,2.4,0,0,0,4.79,0V145A2.4,2.4,0,0,0,172.94,142.59Z"/><path class="cls-1" d="M140,.5A139.5,139.5,0,1,0,279.5,140,139.5,139.5,0,0,0,140,.5Zm30.14,105.17,19.76-19.76a2.4,2.4,0,1,1,3.39,3.39l-19.76,19.76a2.4,2.4,0,0,1-3.39-3.39ZM137,65.15a2.4,2.4,0,0,1,4.79,0V93.09a2.4,2.4,0,0,1-4.79,0ZM85.51,85.91a2.4,2.4,0,0,1,3.39,0l19.76,19.76a2.4,2.4,0,0,1-3.39,3.39L85.51,89.3A2.4,2.4,0,0,1,85.51,85.91ZM62.75,140.2a2.4,2.4,0,0,1,2.4-2.4H93.09a2.4,2.4,0,0,1,0,4.79H65.15A2.4,2.4,0,0,1,62.75,140.2Zm45.91,33.73L88.9,193.69a2.4,2.4,0,1,1-3.39-3.39l19.76-19.76a2.4,2.4,0,0,1,3.39,3.39Zm16.51,2a38.5,38.5,0,1,1,50.72-50.72c-.59,0-1.17,0-1.76,0a49.37,49.37,0,0,0-6.95.5,30.5,30.5,0,1,0-41.55,41.55,49.37,49.37,0,0,0-.5,6.95C125.13,174.72,125.15,175.3,125.17,175.89Zm47.77,41.36a44.31,44.31,0,1,1,44.31-44.31A44.31,44.31,0,0,1,172.94,217.25Z"/></g></svg>