<svg xmlns="http://www.w3.org/2000/svg" viewBox="0 0 280 280"><defs><style>.cls-1{fill:#fccda0;stroke:#fccda0;stroke-linecap:round;stroke-linejoin:round;}</style></defs><title>nonsmoking</title><g id="NonSmoker"><path class="cls-1" d="M55.25,173V150h77.9L32.95,49.79A140,140,0,0,0,230.21,247.05L156.15,173Z"/><path class="cls-1" d="M140,0A139.43,139.43,0,0,0,49.93,32.83L167.1,150h31.15v23H190.1l57.07,57.07A140,140,0,0,0,140,0Zm55.13,121.25h-24s-25-1-18-26c0,0-21.82-4.84-20-23,2-20,12-21,23-22v7s-16-2-16,15,18,17,18,17,8,0,4,6-2.35,18,9,19c11,1,18,0,24,0s16,1,16,12v15h-7v-11C204.13,126.25,206.13,121.25,195.13,121.25Zm16.63,52.25h-8v-23h8Zm13,0h-8v-23h8Zm.38-50.25v18h-7s0-4.75-1-21c-1-16-17-15-17-15h-19c-9,0-2-10,0-14s3-10-2-16c-7.3-8.76-20-7-20-7v-6c4-2,12,0,12,0s13,2,17,15-3,21-3,21h15C227.13,98.25,225.13,123.25,225.13,123.25Z"/></g></svg>