<svg xmlns="http://www.w3.org/2000/svg" viewBox="0 0 280 280"><defs><style>.cls-1{fill:#fccda0;stroke:#fccda0;stroke-linecap:round;stroke-linejoin:round;}</style></defs><title>smoke</title><g id="Smoker"><path class="cls-1" d="M140,3.5A136.5,136.5,0,1,0,276.5,140,136.5,136.5,0,0,0,140,3.5Zm61.14,167.07H50.41V146.32H201.14Zm-4.74-50.07H180.58c-11.59,0-16-1.15-22.14-5.27-11.93-8-5.27-22.14-5.27-22.14-13.7,0-19-9.49-20.55-14.23S130,66.74,136.31,55.15s20.55-9,20.55-9v6.32C149,53,142.64,53,139.47,67.8s11.59,17.92,19,19,4.22,5.27,3.16,7.38-4.22,8.43,0,13.7a13.17,13.17,0,0,0,9.49,5.27H198.5c16.86,0,15.81,15.81,15.81,15.81v12.65h-7.38V130C206.93,120.5,196.39,120.5,196.39,120.5Zm19,50.59h-8.43V146.85h8.43Zm1.58-59.55c-6.67-10-15.81-9.49-15.81-9.49H185.32c-8.43,0-6.47-1.71-3.16-10.54,3.16-8.43,3.16-13.7-1.05-21.08-5.66-9.9-21.08-6.32-21.08-6.32L159,56.73c16.86-3.16,27.17,6,30.57,13.7,4.22,9.49-1.05,24.24-1.05,24.24h13.7c27.41,0,26.35,31.62,26.35,31.62v14.76h-8.43V126.3C220.11,118.92,219.05,114.7,216.95,111.54Zm12.12,59.55h-8.43V146.85h8.43Z"/></g></svg>