<svg xmlns="http://www.w3.org/2000/svg" viewBox="0 0 280 280"><defs><style>.cls-1{fill:#fccda0;stroke:#fccda0;stroke-linecap:round;stroke-linejoin:round;}</style></defs><title>vegan</title><g id="vegan"><path class="cls-1" d="M140,0A140,140,0,1,0,280,140,140,140,0,0,0,140,0Zm70.33,85.65c1.39,6.95.69,18.75-20.14,29.87S169.7,113.08,160,143.65,144,214.5,143.3,218H129.41s-15.28-70.85-25.7-92.39S80.78,76.27,66.2,65.85c0,0,20.84,7.64,32.65,25s22.23,36.12,36.82,93.08c0,0,18.06-61.13,33.34-82,9.27-12.64,12.4-16.33,13.43-17.28-2.84.59-18.24,4.78-27.67,28,0,0-5.56-12.5,4.86-28.48s32.65-17.37,32.65-17.37S211,64.11,213.8,62C213.8,62,208.94,78.7,210.33,85.65Z"/></g></svg>