<svg xmlns="http://www.w3.org/2000/svg" viewBox="0 0 280 280"><defs><style>.cls-1{fill:#fccda0;stroke:#fccda0;stroke-linecap:round;stroke-linejoin:round;}</style></defs><title>veggie</title><g id="veggie-2" data-name="veggie"><path class="cls-1" d="M127.42,177.58l-7.78,7.78L93.69,160.72l5.19-5.19s3.18-1.27,8.64-16.26L26.77,58.52A139.5,139.5,0,0,0,221.48,253.23L139,170.79A51.09,51.09,0,0,0,127.42,177.58Zm-33.73,35C80.72,213.9,82,198.34,82,198.34s-18.16,0-14.27-13c3-10,18.16-2.59,18.16-2.59l11.68-11.68,11.68,11.68-10.38,13S106.66,211.31,93.69,212.61Z"/><path class="cls-1" d="M201.36,85.47c27.12,31.84.65,74.39-23.88,79.92l67,67A139.49,139.49,0,0,0,47.59,35.51l69.94,69.94C130.57,68.12,173,52.18,201.36,85.47Z"/></g></svg>