<svg xmlns="http://www.w3.org/2000/svg" viewBox="0 0 280 280"><defs><style>.cls-1{fill:#fccda0;stroke:#fccda0;stroke-linecap:round;stroke-linejoin:round;}</style></defs><title>wifi</title><g id="Wifi"><path class="cls-1" d="M140,0A140,140,0,1,0,280,140,140,140,0,0,0,140,0Zm-.38,209A15.34,15.34,0,1,1,155,193.68,15.34,15.34,0,0,1,139.62,209Zm26.07-36a46.55,46.55,0,0,0-26.07-9.2c-16.1-.77-24.54,9.2-24.54,9.2l-13.8-12.27s13-15.34,38.34-15.34,39.88,15.34,39.88,15.34ZM191,148.44c-8.44-7.67-23-19.17-51.38-19.94s-49.84,19.94-49.84,19.94L76,134.64c3.83-3.83,26.07-24.54,63.65-25.31S204.8,135.4,204.8,135.4Zm26.07-27.61c-13.8-10-33-27.61-77.45-29.14s-77.45,29.14-77.45,29.14l-13.8-12.27S80.57,70.22,139.62,71s92,37.58,92,37.58Z"/></g></svg>