<svg xmlns="http://www.w3.org/2000/svg" viewBox="0 0 218 218"><defs><style>.cls-1{fill:#fbcea1;isolation:isolate;}</style></defs><title>bargoldy</title><g id="Layer_2" data-name="Layer 2"><g id="Layer_1-2" data-name="Layer 1"><path class="cls-1" d="M109,0A109,109,0,1,0,218,109,109,109,0,0,0,109,0Zm54.53,50.53-48.23,62.4V152.6s31.17-.67,31.17,9.5c0,10-39.67,8.17-39.67,8.17s-33.66,1-33.18-9.51c.41-9,29.68-8.49,29.68-8.49l1-39L54.48,50.55a1.82,1.82,0,0,1,1.43-2.95H162.09A1.82,1.82,0,0,1,163.53,50.53Z"/></g></g></svg>