<svg xmlns="http://www.w3.org/2000/svg" viewBox="0 0 220 220"><defs><style>.cls-1{fill:#fbcea1;isolation:isolate;}</style></defs><title>restaurantgoldy</title><g id="Layer_2" data-name="Layer 2"><g id="Layer_1-2" data-name="Layer 1"><path class="cls-1" d="M110,0A110,110,0,1,0,220,110,110,110,0,0,0,110,0ZM55.66,49.23c4.09,4.08,49.57,50.43,49.57,50.43l-15.75,16S54.21,80.71,50.13,65,51.58,45.15,55.66,49.23ZM163.54,170.8c-6.42,4.37-12.54-2.62-12.54-2.62l-36.44-39.07c-2.63.88-6.13-1.75-6.13-1.75l12.25-11.66s37.32,37.9,41.4,41.4S170,166.43,163.54,170.8ZM174.32,68.47,149,93.83c-9.91,9.92-18,6.9-18,6.9L59.45,172.24s-7.58,8.47-12.82,2.35,0-12.83,0-12.83L118.35,90c-2.07-5.79,1.16-11,3.4-13.71,6.71-8.21,29.42-30.58,29.42-30.58s3-2,4.58-.33-.5,4.08-.5,4.08S136,68.83,130.58,76.08c-.6.8-1.25,2.09.25,4s3.76.57,4.67-.16c7.06-5.66,26-25.17,26-25.17s2.42-2.08,3.92-.58-.34,3.66-.34,3.66L139.92,84.5a3.33,3.33,0,0,0-.09,4.67c2.17,2.5,3.8.5,4.59-.34,6-6.32,25.08-24.08,25.08-24.08s3.67-3.58,5.58-1.33S174.32,68.47,174.32,68.47Z"/></g></g></svg>