<svg xmlns="http://www.w3.org/2000/svg" viewBox="0 0 220.5 220.5"><defs><style>.cls-1{fill:#fbcea1;isolation:isolate;}</style></defs><title>Layer 1</title><g id="Layer_2" data-name="Layer 2"><g id="Layer_1-2" data-name="Layer 1"><path class="cls-1" d="M162.38,120.12c-6-4.2-10.5,12.76-10.5,12.76S171.12,126.24,162.38,120.12Z"/><path class="cls-1" d="M110.25,0A110.25,110.25,0,1,0,220.5,110.25,110.25,110.25,0,0,0,110.25,0Zm13.37,46.62s-8.5,7.76-4.11,14c1.69,2.4,9.68,11.15,9.11,17.27-.64,7-10,11.24-10,11.24s3.26-8.37-7.37-19.87S108,44.75,123.62,46.62Zm-22.38,8.85s-6.95,6.34-3.36,11.44c1.38,2,7.92,9.12,7.45,14.13-.53,5.71-8.18,9.21-8.18,9.21s2.66-6.86-6-16.27S88.45,53.93,101.24,55.47Zm74.84,69.36c-7.33,19-35.66,24.34-35.66,24.34l-1.34,3.33s30.75,3,26.42,12-42.09,8.68-55.75,9c-13.82.32-42.8.84-55-5.67-5.57-3-10.33-12.33,18.33-17.33,0,0-13.66-17.33-14.33-31.33s-4-24.34,9.67-24.34h79.66s13,.34,10.34,11C158.42,105.83,183.42,105.83,176.08,124.83Z"/></g></g></svg>